<?xml version="1.0" standalone="no"?>
<!DOCTYPE svg PUBLIC "-//W3C//DTD SVG 20010904//EN"
 "http://www.w3.org/TR/2001/REC-SVG-20010904/DTD/svg10.dtd">
<svg version="1.0" xmlns="http://www.w3.org/2000/svg"
 width="512.000000pt" height="512.000000pt" viewBox="0 0 512.000000 512.000000"
 preserveAspectRatio="xMidYMid meet">

<g transform="translate(0.000000,512.000000) scale(0.100000,-0.100000)"
fill="#ecc94b" stroke="none">
<path d="M2346 4864 c-265 -36 -508 -130 -741 -287 -120 -81 -341 -302 -422
-422 -161 -238 -252 -476 -288 -752 -112 -852 426 -1934 1484 -2988 l181 -180
181 180 c363 362 633 685 878 1052 626 938 780 1777 452 2457 -155 321 -446
618 -760 775 -296 149 -647 209 -965 165z m482 -249 c286 -56 539 -191 747
-400 210 -209 343 -459 402 -752 24 -121 24 -393 0 -518 -116 -597 -569 -1050
-1162 -1161 -134 -25 -393 -26 -518 -1 -522 104 -943 474 -1107 975 -52 161
-65 248 -64 447 0 195 15 290 69 452 111 330 349 620 651 793 150 86 355 155
529 179 98 14 354 6 453 -14z"/>
<path d="M2420 4474 c-588 -75 -1041 -515 -1126 -1094 -57 -393 78 -802 358
-1077 124 -122 204 -180 336 -247 494 -249 1098 -146 1484 252 148 153 237
299 303 495 84 254 84 535 0 792 -65 200 -160 352 -314 506 -185 185 -380 293
-631 350 -83 19 -331 33 -410 23z m380 -714 l0 -320 320 0 320 0 0 -240 0
-240 -320 0 -320 0 0 -320 0 -320 -240 0 -240 0 0 320 0 320 -320 0 -320 0 0
240 0 240 320 0 320 0 0 320 0 320 240 0 240 0 0 -320z"/>
</g>
</svg>
