<svg viewBox="0 0 24 24" fill="currentColor" width="40" height="40" data-ux="IconSocial" class="x-el x-el-svg c1-1 c1-2 c1-4u c1-1h c1-2c c1-cj c1-ck c1-4r c1-b c1-c c1-cl c1-cm c1-d c1-cn c1-co c1-cp c1-cq c1-cr c1-cs c1-ct c1-cu c1-e c1-f c1-g"><g><path d="M12.002 20.003a8.002 8.002 0 100-16.003 8.002 8.002 0 000 16.003z" fill="#00000000"></path><path d="M12.007 4C7.585 4 4 7.579 4 11.993a7.996 7.996 0 005.087 7.448c-.072-.632-.131-1.605.027-2.296.145-.625.935-3.974.935-3.974s-.237-.48-.237-1.184c0-1.112.646-1.94 1.45-1.94.685 0 1.015.512 1.015 1.124 0 .684-.435 1.71-.666 2.665-.19.796.402 1.447 1.186 1.447 1.424 0 2.518-1.5 2.518-3.658 0-1.914-1.378-3.25-3.348-3.25-2.28 0-3.618 1.704-3.618 3.467 0 .684.264 1.421.593 1.822a.238.238 0 01.053.23c-.06.25-.198.797-.224.909-.033.144-.119.177-.27.105-1.002-.467-1.628-1.921-1.628-3.099 0-2.52 1.832-4.835 5.292-4.835 2.774 0 4.936 1.973 4.936 4.618 0 2.757-1.74 4.974-4.152 4.974-.81 0-1.575-.421-1.832-.921l-.5 1.901c-.179.697-.666 1.566-.996 2.099a8.06 8.06 0 002.372.355C16.415 20 20 16.421 20 12.007 20.013 7.579 16.428 4 12.007 4z" fill="#fff"></path></g></svg>